<svg xmlns="http://www.w3.org/2000/svg" xmlns:xlink="http://www.w3.org/1999/xlink" width="1045" height="2599" version="1.1" viewBox="0 0 1045 2599">
  <g fill="rgba(44, 45, 52, 1)" fill-rule="evenodd" stroke="none" stroke-width="1">
    <path d="M568.5 3c0 1.5-.4 1.4 0 2 4 2.5 11.5-1.4 15-.5 10.1 2.5 28.7-.3 36.5 1v1h-23.5c-2 1.4-8.4.6-11.5.5v1h1c1.5.8 4.5-.7 6.5-.5 8 1 15.3 2.5 25 2.5v.5h-1c-4.2 2.6-25.4-.8-31 0-.7 0-3 1-4.5.5-.6-.2-.8-1.5-2.5-1-.7.2-2 1.7-4 1l-.5-1c-3.3-1.1-7.7 1.6-9.5 1-9.5-3-40.8-1.2-47 .5-5.2 1.4-12.7-1.2-16.5 1.5 56.7.9 119.3-1 182.5-1l97.5.5c13.2-2.3 33.1 3.2 45-1 5.4-1.9 8.2 2.8 13 2 .4 0 4.2 0 5-.5.1 0 .7-1.4 1-1.5 5.4-1.9 8.2 2.4 14 1.5 11.6-1.7 23.6.8 35.5-1 4.6-.7 11.6 1.6 17 .5 3.4-.7 8.5 1 13 0 6.6-1.4 27.9-1.4 34.5 0l5-.5h81v12c-1.7.4-1.4-.3-2 1h2v7H0V12c17 0 32.6.4 49 0v-.5c-6.5-2.2-25.2-.5-33.5-.5l-1-1c9.6.2 17.1-1.4 25-2.5 3-.4 5.9 2.4 7.5-.5H35.5c-2.8-1.7-18.9-.6-23.5-.5v-1h1c2.7-1.9 10 0 16 0h34c1.1-3.7 2.7-2.8 8.5-2.5 2.5 2.2 9.6.5 12.5 0 5.5 3.8 23 .1 32.5 0-.2 1.4-.5 1 0 2 3.8 2.4 11.3-1 14.5-.5 10.5 1.9 29-.3 37 1v1h-23.5c-2 1.4-8.4.6-11.5.5v1h1c1.5.8 4.5-.7 6.5-.5 8 1 15.3 2.5 25 2.5v.5h-.5c-1.8 1.2-7.2.6-10 .5v.5h.5c2.5 1.6 15 .5 19 .5l46.5.5 79.5-.5c3.8.8 9.2-.8 13 0 8.2 1.7 21.9 1 30 0 1.2-.1 3.6.5 5.5.5 5.8 0 9.9-.9 16 0 1.3.2 6 1.5 8 .5.1 0 .7-1.4 1-1.5 1.7-.6 6 0 7 .5v1c1.8.8 3-.8 3.5-1 2.4-.8 4.4 1.1 6 1.5 4.6 1.1 8-.8 10-1.5 4-1.3 6.1 2.2 8 2l1.5-1.5h9.5c6.6 0 13 .5 20 .5 3.5 0 14.3.2 15.5-1.5h-17c-2.7-1.7-10.6-.5-14.5-.5l-33-.5C354.5 9.1 316 10 280 10c-9.3 0-23.5 1.7-31 0-4.3-1-8.4.8-13-.5-3-.8-8.1.5-10-1.5h.5c1.1-.7 2.2-.3 3-1.5l-2-.5c-1.2.7-2.7.1-3.5.5-.6 1-.2 1.5-.5 2.5l-.5-.5c-.5-.7.2-1.2 0-1.5-.8-1-1.8-.5-2.5-2 1.3-.7 2.1-1 4.5-1 2.4 1.7 4.2-.4 8-.5 7.5-.1 15.4.8 21.5 1L255 3c-1.4-.6-1 0-1.5-1.5h1c2.5-1.6 16.2-.6 21-.5v1h-.5c-3.1 2-14.6.1-18.5 1.5v1h13c2.9-1.5 13.7.5 19 .5H314c3.8.9 10.6 3.3 14.5 2l.5-1c1-.3 9 1.8 12.5 1 1.5-.3 3.1-1.6 4-2 3.6-1.5 12.4-.8 16 0 8.7 2 23.4-1.2 33 1h13c4.4.7 13.1 2.3 19 1 11.3-2.5 28.1 2.3 42.5-1h11.5c6.2-1.4 14.1-1 21.5-1h9s2.1-.3 2.5-.5v-1c2.2-1 5.2.7 6 1 3 1 6.7-.7 8.5-1 2.7-.4 3.5 2 6.5 1L536 3l1 1.5h22l1.5-1.5h8zm-269-2c1.4 0 2.1.2 3 .5l-.5.5c-.7.5-1.6.5-3 .5l.5-1.5zm5.5 0c6.3 0 11.6-.6 17 .5V3h-1c-3.5-2.2-13 .5-15.5-1-.4-.5-.2-.1-.5-1zm49 0c2.8 0 6.5-.2 8.5.5l-.5 1c-1.1.4-2.7.5-4.5.5-.8-.5-2-.5-3.5-.5V1zm30.5 0h1v1h-1V1zm322 0h21v1h-.5c-3.1 2-14.6.1-18.5 1.5v1h13c2.1-1.1 10.9.2 14.5.5h30c3.2.7 7.9 2.5 11 2.5.9 0 3.6-1.4 4-1.5 1.2-.3 9 1.8 12.5 1 2.6-.6 4.7-1.9 7.5-2.5 3.8-.9 10 0 13 .5l5-.5a93 93 0 0 1 17.5 1c2.7.5 15.4-.2 19.5-1l6 .5c4.6-.2 13-1.9 17.5 0 .9.4 2.5 1.7 4 2 3.4.8 8.6-.3 10.5-1 1.7-.6 4.7 1.5 6.5 1.5 2.7 0 7.6-1.8 10.5-2.5 6-1.4 13.8 1.4 19 .5 13.5-2.3 24.4-1 38.5-1v-1L968 3c-5.4-.2-11.9-.5-18-.5l-.5-1.5h12c1.2.6 7.7 0 10 .5v1c-1.3.8-1.2.4-1 1.5.7.5 1.6.5 3 .5 1.3-1.1 18.2-2 21.5-1 .5.1 2.1 1.4 2.5 1.5 1.5.3 3.6-1 6-1 .5.9.6.8 1 2-2.8.5-1.9 1.1-2.5 3l-.5-.5c-.5-.8 0-1.1-.5-2-.5-.4-.5-.3-1.5-.5-1.2.7-1.9.2-3.5 0l-.5.5v1c1.5 0 2.6.2 3.5.5l-.5.5c-1.5 1-4.3 0-6.5.5-3.1.7-6 1.9-10.5 1.5-1.5-.1-3.8-1-6-.5-12 2.6-32.5-2.4-47.5 0-8.6 1.4-21.5-.5-32.5-.5H886c-3 .6-7-.9-11 0-7.8 1.7-18.8.5-27.5.5-5.4 0-8.4 1-13 0-9.8-2.2-23 1.6-32.5-.5l-11 .5c-13.3-2.8-30.7 2-42 0h-14.5c-12.6 0-24.1.5-34.5 0-4.9-.2-19.3.9-22-2h.5c1.1-.7 2.2-.3 3-1.5l-2-.5c-1.2.7-1.9.2-3.5 0l-.5.5c.2 1.6.4 1.2 0 2.5l-.5-.5c-.5-.7.2-1.1 0-1.5-.7-1-1.8-.7-2.5-2 1.3-.7 2.1-1 4.5-1 2.4 1.7 4.2-.4 8-.5 7.5-.1 15.4.8 21.5 1L707 3c-1.4-.6-1 0-1.5-1.5.9-.3.5-.1 1-.5zm45 0c1.4 0 2.1.2 3 .5l-.5.5c-.7.5-1.6.5-3 .5l.5-1.5zm5.5 0c6.3 0 11.6-.6 17 .5V3h-1c-3.5-2.2-13 .5-15.5-1-.4-.5-.2-.1-.5-1zm49 0c1.2.1 1.2.2 2 .5v1h-2V1zm30.5 0h1v1h-1V1zm3 0h1v1h-1V1zM871 1v1.5l-7.5.5-1-1.5c2-.7 5.7-.5 8.5-.5zm33 0h16v1l-.5.5c-3.2-1-12.6-.3-16.5.5V1.5c.9-.3.5-.1 1-.5zm19 0c1.4 0 2.1.2 3 .5v1c-2.9 0-3 0-3-1.5zm-728 .5c2.2 0 4 .2 5.5.5l-.5.5c-1.1 1-15 1-16 .5-.4-.5-.2-.1-.5-1 3 0 9.4.9 11.5-.5zm41.5 0h4v1h-4v-1zm57 0c1.5 0 2.6.2 3.5.5v1h-4.5V2c.9-.3.5-.1 1-.5zm395 0h4v1h-4v-1zm57 0c1.5 0 2.6.2 3.5.5v1h-4l-.5-1c.9-.3.5-.1 1-.5zm67.5 0c1.2.6.3-.2 1 1h-.5c-.8.6-2.4.5-4 .5V2c1.5 0 2.7 0 3.5-.5zm115.5 0c1.8 0 2.7.2 4 .5l-.5.5c-.8.6-2.4.5-4 .5l.5-1.5zm56 0h4v1h-4v-1zM37.5 2L45 3v1h-2c-1 .5-3.1-.4-5.5-.5V2zm15 0l4.5.5v1h-5l.5-1.5zM229 2h1l-.5.5V3c-.4-.5-.2-.1-.5-1zm348 0c1.4 0 2.1.2 3 .5v1h-5v-1c1.2-.1 1.4-.1 2-.5zm17.5 0v1.5c-3.6 0-4.3.6-7.5.5V3l7.5-1zM681 2h1v1h-1V2zm314 0h1v1h-1V2zM219.5 4c-.2 1-.1 1-.5 1.5-.5.4-.1.2-1 .5-1.6 1-9.7.2-12.5.5-.6-1-.7-1-1-2.5 2.5 0 6.3-.9 8-.5 4 .9 2.3 1.3 7 .5zm452 0c-.2 1-.1 1-.5 1.5-.5.4-.1.2-1 .5-1.6 1-9.7.2-12.5.5l-1-1.5.5-.5 7.5-1c4 .9 2.3 1.3 7 .5zm334 0c1.8.3 2 1.4 4 1 4-.7 6.2-1.9 11 0l-.5 1-2 .5c-2.7-1.7-9.5-.1-12-.5l-.5-.5V4zM109 4v1c1 .3 2 .5 3.5.5l.5-.5c-.5-.4-.1-.2-1-.5-.7-.5-1.6-.5-3-.5zm452 0v1c1 .3 2 .5 3.5.5l.5-1-.5-.5H561zM.5 5c2.1.3 5.2-.4 7 1H7c-1.3.9-4.8.6-7 .5L.5 5zm174 0c3.5.1 10.5-.2 13 .5-.5.4-.1.2-1 .5-2 1.1-9.3.6-13.5.5l-.5-1c1.2-.1 1.4-.1 2-.5zM189 5h13v1c-4 .4-7.5.5-12.5.5L189 5zm437 0c5.3.2 9 .3 13.5 0v1h-1c-2 1.1-9.3.6-13.5.5l-.5-1c1-.2 1-.1 1.5-.5zm15 0h13v1c-4 .4-7.5.5-12.5.5L641 5zm382 0h13v1h-.5c-1 .7-3.7.6-5.5.5-2.4-1.3-5.4 1.2-7-1.5zm14.5 0c2.7.1 6 0 7 .5.4.5.2.1.5 1h-4c-1.3-.7-2.4.5-3.5-1.5zm-806 1l-.5 1.5h2.5l.5-1-.5-.5h-2zm452 0l-.5 1.5h2.5l.5-1-.5-.5h-2zm308 0c0 1.5-.2 1.5 2.5 1.5v-1l-.5-.5h-2zm-943 1c1.4 1 3.6 1 6 1v-.5L54 7h-5.5zM89 7v1c1.8-.2 1.3.2 2-1h-2zm8 0v1h4l.5-.5V7H97zm15 0v1h3V7h-3zm10.5 0c.3 1.6 4.8 1.1 8 1l1.5-1h-9.5zm418 0v1c4 0 9.8.6 13-.5V7h-13zM564 7v1h3V7h-3zm10.5 0c-1.2.7-4.3.3-5.5 1 4.4.1 12.3 1 15-1h-9.5zM117 7.5c1 .7 3.5.7 4.5 0H117zm63 3V9c-3.3.2-6.6 1-8.5-.5l14-1 .5.5v1c-3.2.2-2.6 1.3-6 1.5zm10 0V9h-1.5V8c9.7-.3 19-.5 27.5-.5.4 1.3.6 1.2 1 2.5h-.5c-2.3 1.8-9.6.6-14 .5 0-2.2-4.5-1.7-8-1.5 0 2.4-1 1.6-4.5 1.5zm442 0V9c-3.3.2-6.6 1-8.5-.5l14-1 .5.5v1c-3.2.2-2.6 1.3-6 1.5zm10 0V9h-1.5V8l27.5-.5c.4 1.3.6 1.2 1 2.5h-.5c-3 2.6-16.7-.9-22-1 0 2.4-1 1.6-4.5 1.5zM1035 9v1.5h-5c0-2.4-4-1.8-7.5-1.5-1.5 2.5-11.2 2.1-14 1.5L1008 9c1.5-1 1.6-1.5 4.5-1.5 2 1 19.1.4 24 .5v1h-1.5zm10 1.5c-2.4 0-5.1-1-6-2.5.8-.3 1.2-.4 2.5-.5.7.5 1.6.5 3 .5.3.8.4 1.2.5 2.5zM.5 8c3.1 0 6.3-.3 8 1-2.6.2-7.3 1-8-1zM496 8v1h1.5c.5-.4.1-.2 1-.5V8H496zm-3 .5c.5.4.1.2 1 .5-.5-.4-.1-.2-1-.5zm27.5.5c-.5.4-.1.2-1 .5.5.4.1.2 1 .5.6.4.8.4 2 .5L523 9h-2.5zm-510 .5c1.3 0 1.7.2 2.5.5v.5c-2.5 0-2.4.3-2.5-1zm157 0c1.3 0 1.7.2 2.5.5v.5c-2.5 0-2.4.3-2.5-1zm452 0c1.3 0 1.7.2 2.5.5v.5c-2.5 0-2.4.3-2.5-1zm-545 .5c-2.4 2-9.8 1.6-14 1.5v1h8c2.2-1.3 15.2 0 19 0 11.6 0 23 .4 34 0 6.8-.2 15.2.8 20.5-1V11h-7l-8.5-1c-.7.2-2 1.7-4 1-1.3-.4-5.2-1.9-8-1-.5.2-.5 1.5-2 1-9.6-3.2-29-.5-38-1zm72 1c.9.6 2.1.6 3 0h-3zm5.5 0c.9.4.6.4 1.5 0H152zm338 1c-.9.6-2.6 1-3.5 1.5v.5h5c1-.7 4.2-.8 5.5-1v-.5c-2.4 0-5.3 0-7-.5zm-26.5 4.5c.9 1 1.5 1 3.5 1V17l-.5-.5h-3zm-98.5 1c-2 1.2-7.1.5-10 .5h-77c-10.4 0-22.6-.7-31.5 1l.5.5c2.7 1.7 20 .1 25 0 13.2-.3 27.6 0 42 0 5.8 0 12 .8 16.5 0 3.9-.7 9.5 2.6 12.5 1.5l1.5-1.5c3.5-1.1 9.5.4 11.5 1 4 1.1 8-.9 10-1.5 5.6-1.7 11.5 1.6 15-1-5.5 0-11.2-.3-16-.5zm452 0c-3.9 2.4-17-.5-22.5.5h-59c-6.4 0-15.6-1.3-21 .5v1h12c1.8-1.1 7.2-.7 10-.5 7.1.4 16 .5 24 .5 9.6 0 19.9.8 27 0 2.2-.2 4.2 1.7 7 1 2.7-.7 8.8-2 13-1a25 25 0 0 0 9.5.5c4.6-1.3 12.4-1 18.5-1v-.5l-.5-.5c-4.4.7-12.8-.2-18-.5zm40.5 0c-3.3 2-13.5.3-16 1v.5H859c4 3.4 15.8-1 22 .5 7.2 1.9 16.5 0 26.5 0h55v-1c-6.3-2-17.1-.5-24.5-.5h-54c-2 1-22.5-.3-26.5-.5zm-476 .5c.9.5 1.1.5 2 0h-2zM507 18c-1.2.7-4.7.6-6 1v1h7l.5-1.5-1.5-.5zm329.5 0v1l3 .5c.6-.8.5-.4 1-1.5h-4zm-325.5.5c0 2.6 6.8 2.2 10 2l.5-1.5c-1-.3-2-.5-3.5-.5-.8.4-4.7 0-7 0zm14.5 0c-.8.7-1 .4-1.5 1.5h3v-1h-.5c-.5-.4-.1-.2-1-.5zm-117 .5c.9.4.6.4 1.5 0h-1.5zm88.5 0v1h1l.5-.5V19H497zm-132 2v1h1.5v-1H365zm9.5 0c.5.4.1.2 1 .5-.5-.4-.1-.2-1-.5zm73 0c.9.6 2.1.6 3 0h-3zm14.5 0c.8 1 .4.7 2 1l.5-.5V21H462zm-28.5.5c1 .8 4.4.8 5.5 0h-5.5zm-49 1L384 24h6.5c2.1-1 8.9.8 11.5-1-5.9 0-12.4-.1-17.5-.5zm-56 .5c-.7.5-1.6.5-3 .5v.5h.5c1.3.9 8 .8 8.5.5.4-.5.2-.1.5-1h-1c-1-.7-3.7-.6-5.5-.5zm74.5 0c2 1.8 16 1 20 1 2.7 0 6.9.7 8-1h-28zm32.5 0l-1.5 1 16.5.5c.7.1 2.6.8 4 .5 1.9-.4 3.7-1 6.5-1 3.2 0 10.6 1 12-1h-37.5zm45 0v1h.5v-1h-.5zm-143 .5v1h1v-1h-1zm152.5 0c.9.6 2.1.6 3 0h-3zM106 24c.7.8.3.6 1.5 1l.5-.5V24h-2zm74 0v1c1.8-.2 1.3.2 2-1h-2zm9 0v1h2.5v-1H189zm21.5 0c.5.4.1.2 1 .5-.5-.4-.1-.2-1-.5zM558 24c.9.5 1.1.5 2 0h-2zm74 0v1c1.8-.2 1.3.2 2-1h-2zm9 0v1h2.5v-1H641zm28 0c.5.4.1.2 1 .5-.5-.4-.1-.2-1-.5zm20 0v1h2.5v-1H689zm9.5 0v1h2l.5-.5V24h-2.5zm73.5 0c.8 1 .7.8 2.5 1l1.5-1h-4zm14 0v1h4.5v-.5l-.5-.5h-4zm101 0c.2 1.3 1.2 1.1 4 1v-1h-4zm14 0c1 .8 1.8.9 3.5 1l.5-.5V24h-4zm75 0c.8 1 .7.8 2.5 1v-1H976zm9.5 0v1h2.5v-1h-2.5zm21.5 0c.5.4.1.2 1 .5-.5-.4-.1-.2-1-.5zm26.5 0v1h2.5v-1h-2.5zM8 26v1c3.7 0 15.3.9 17.5-.5L8 26zm20.5 0c-.5.4-.1.2-1 .5v.5H33v-.5c-1.4-.3-2.6-.5-4.5-.5zm8 0c-.6.4-2.4.6-3 1 4 .2 15 2.2 17-1h-6c-1 .6-5.4 0-8 0zM53 26c.1 1.3-.2.9 2 1v-.5l-.5-.5H53zm8 0v.5c-.3.5-1 .1-.5.5a71 71 0 0 0 20 .5V27c-2.4-.8-6.8-.5-10-.5-1.7-1.1-6.8-.6-9.5-.5zm37 0c-.5.4-.1.2-1 .5v.5c6.4.9 15 1.6 23 0v-.5c-3-.6-8-.5-11 0-3.6.7-7.1-.5-11-.5zm27.5 0c.1 1.3-.2.9 2 1v-.5l-.5-.5h-1.5zm4 0v1c4.2.4 13.2 1.8 16.5-.5-6-.2-10.3-.5-16.5-.5zm18.5 0c-.5.4-.1.2-1 .5v.5h5.5v-.5c-1.4-.3-2.6-.5-4.5-.5zm15 0c-1.9 1.1-6.6-.2-8.5 1 3.4.1 16.4.7 17.5-1h-9zm373 0c-.5.4-.1.2-1 .5v.5h12.5c1.6 1 4.2-.6 7 0a43 43 0 0 0 17.5 0c-.5-.4-.1-.2-1-.5-2.8-1.7-8.7.4-11.5 0-8.1-1-16.2-.5-23.5-.5zm41.5 0c.1 1.3-.2.9 2 1v-.5l-.5-.5h-1.5zm4 0v1c4.3.4 13.5 1.8 17-.5-6.2-.1-10.7-.5-17-.5zm18.5 0c-.5.4-.1.2-1 .5v.5h5.5v-.5c-1.4-.3-2.6-.5-4.5-.5zm15 0c-1.9 1.1-6.6-.2-8.5 1 3.4.1 16.4.7 17.5-1h-9zm93.5 0v1c3.8 0 15.8 1 18-.5l-18-.5zm20.5 0c-.5.4-.1.2-1 .5v.5h5.5v-.5c-1.4-.3-2.6-.5-4.5-.5zm8 0c-.6.4-2.4.6-3 1 4 .2 15 2.3 17-1h-6c-1 .6-5.4 0-8 0zm16.5 0c.1 1.3-.2.9 2 1v-.5l-.5-.5h-1.5zm8 0v.5c-.3.5-1 .1-.5.5 3.3 2.1 21.6.2 25.5 0 3.2-.2 8.8.9 11-.5-11.3-1.3-22.7-.5-36-.5zM881 26l-1.5 1c9.6 0 17.5.8 26 .5 3.6-.1 8.2.4 11-.5-.5-.4-.1-.2-1-.5-3-1.9-9 .5-12 0-6.8-1.1-15.3-.5-22.5-.5zm41 0c.1 1.3-.2.9 2 1v-.5l-.5-.5H922zm4 0v1c4.3.4 13.5 1.8 17-.5-6.2-.1-10.7-.5-17-.5zm18.5 0c-.5.4-.1.2-1 .5v.5h5.5v-.5c-1.4-.3-2.6-.5-4.5-.5zm15 0c-2 1.2-7-.2-9 1 3.5.1 16.9.7 18-1H962c-.5.3-1 0-2.5 0zm-433 .5c.5.4.1.2 1 .5-.5-.4-.1-.2-1-.5zm278.5 0c.5.4.1.2 1 .5-.5-.4-.1-.2-1-.5zm33 0v1l1.5-.5v-.5H838zm33 0c.5.4.1.2 1 .5-.5-.4-.1-.2-1-.5zm-36 .5c.7.8.3.6 1.5 1l.5-.5V27h-2z"/>
    <path d="M0 30h1045v2569H0z"/>
  </g>
</svg>
