<svg width="117" height="48" viewBox="0 0 117 48" xmlns="http://www.w3.org/2000/svg">
  <path d="M98.5 1c1-.5 2.5-.5 3-.5s-2.1 1.8 0 2.5c1-1.5 13-.7 14.5 0s1 .7 0 1c-6.3.3-12.5 4-18 6-11.4 4-22.2 6-32.5 11-6.3 3.1-13.2 7.2-19.5 10-2 1-3.6 0-5.5 1C36 34.2 33 38.9 27 40c0-.2 5-4 6-5.5 0-1-.7-.5-1-.5a68 68 0 0 1-17.5 11.5c0-.3 4.8-4 5.5-6h-1c-3 2.2-5.4 2-9.5 3.5-2.7 1-4.6 3.8-8 4.5 0-.2 1.3-1.4 1.5-2 0-.1 3.5-3 3.5-3.5s-3.5 2.5-5 3-2 0-1-1c4.8-4.3 10.2-11.4 15-15C21 25 26.8 22.3 33 19c2.5-1.3 6.5-5.6 9.5-6 .3 0 8-4 9.5-4.5s0 .7-.5 1c-1.9 1.3-7 3.5-7.5 4s-.3.8 0 1c1.3.6 5.3-1 6.5-1.5 2-.9 4.1-2.8 6.5-3.5 4.3-1.3 7-.9 11-2.5 1.8-.7 4.5-2 5.5-2.5s3-1 3.5-.5-3.3 3.2 0 3c4.1-3.4 20.5-5.5 21.5-6z" fill="#fb5d5d" fill-rule="evenodd"/>
</svg>